<?xml version="1.0" standalone="no"?>
<!DOCTYPE svg PUBLIC "-//W3C//DTD SVG 20010904//EN"
 "http://www.w3.org/TR/2001/REC-SVG-20010904/DTD/svg10.dtd">
<svg version="1.0" xmlns="http://www.w3.org/2000/svg"
 width="500.000000pt" height="500.000000pt" viewBox="0 0 500.000000 500.000000"
 preserveAspectRatio="xMidYMid meet">
<metadata>
Created by potrace 1.14, written by Peter Selinger 2001-2017
</metadata>
<g transform="translate(0.000000,500.000000) scale(0.100000,-0.100000)"
fill="#000000" stroke="none">
<path d="M2422 4448 c-7 -7 -12 -38 -12 -70 0 -48 -3 -59 -21 -69 -18 -9 -24
-8 -31 5 -7 12 -25 16 -78 16 -38 0 -72 -5 -75 -10 -9 -14 -9 -475 -1 -489 4
-6 27 -11 52 -11 43 0 44 0 44 -34 0 -36 19 -53 39 -33 6 6 11 24 11 39 0 23
4 28 25 28 18 0 25 -5 25 -20 0 -11 -1 -22 -2 -24 -2 -2 6 -13 16 -25 15 -17
31 -21 78 -21 78 0 98 11 98 55 0 32 3 35 28 35 24 0 27 -4 28 -31 2 -39 24
-55 42 -31 7 9 11 27 9 40 -4 20 0 22 39 22 23 0 46 5 49 11 9 13 8 476 0 489
-3 6 -26 10 -51 10 -42 0 -44 1 -44 29 0 65 -42 46 -49 -21 -1 -5 -12 -8 -26
-8 -23 0 -25 4 -25 46 0 75 -10 84 -88 84 -40 0 -73 -5 -80 -12z m118 -93 c0
-68 11 -75 120 -75 l80 0 -2 -207 -3 -208 -88 0 c-96 -1 -107 -6 -107 -58 0
-27 -2 -28 -42 -25 -39 3 -43 5 -45 32 -1 16 -7 34 -13 40 -6 6 -50 11 -98 12
l-87 1 -3 207 -2 207 62 -1 c137 -3 148 3 148 81 l0 49 40 0 40 0 0 -55z"/>
<path d="M2407 4233 c-4 -3 -7 -15 -7 -25 0 -16 10 -18 94 -18 96 0 111 5 100
34 -5 13 -23 16 -93 16 -48 0 -91 -3 -94 -7z"/>
<path d="M2460 4143 c-14 -10 -45 -20 -70 -23 -37 -4 -46 -9 -48 -27 -2 -13 1
-24 7 -24 6 -1 16 -3 21 -4 6 -1 17 -3 25 -4 26 -2 16 -16 -17 -26 -23 -7 -33
-16 -33 -30 0 -16 8 -21 37 -23 32 -3 39 -8 44 -30 10 -41 23 -52 63 -52 43 0
81 23 81 49 0 20 19 31 51 31 11 0 22 7 25 15 9 23 -15 45 -47 45 -31 0 -41
19 -11 21 34 1 55 8 63 20 13 22 -2 39 -37 39 -18 0 -48 9 -66 20 -40 24 -56
25 -88 3z m57 -166 c0 -7 -9 -14 -19 -14 -10 -1 -18 3 -18 8 0 6 5 7 10 4 6
-3 10 -1 10 4 0 6 4 11 8 11 5 0 9 -6 9 -13z"/>
<path d="M2075 4440 c-8 -13 3 -30 20 -30 19 0 26 27 9 34 -21 8 -22 8 -29 -4z"/>
<path d="M1713 4404 c-8 -20 8 -36 26 -25 15 10 8 41 -9 41 -6 0 -13 -7 -17
-16z"/>
<path d="M1240 4385 c-10 -12 -10 -18 0 -30 16 -20 36 -19 44 1 6 16 -9 44
-24 44 -4 0 -13 -7 -20 -15z"/>
<path d="M1785 4379 c-4 -6 4 -22 16 -36 l24 -25 -30 -22 c-73 -52 -75 -57
-75 -155 0 -91 5 -106 34 -95 13 5 16 22 16 85 0 89 8 102 80 139 22 11 40 25
40 30 0 16 -71 90 -86 90 -7 0 -16 -5 -19 -11z"/>
<path d="M1960 4374 c-9 -10 -10 -18 -2 -26 12 -12 32 -2 32 17 0 21 -16 26
-30 9z"/>
<path d="M2081 4356 c-9 -10 -8 -16 3 -25 10 -9 16 -8 25 3 9 10 8 16 -3 25
-10 9 -16 8 -25 -3z"/>
<path d="M3013 4354 c-32 -24 5 -34 133 -34 104 0 123 2 128 16 4 9 4 19 1 23
-3 3 -60 6 -125 7 -87 1 -125 -2 -137 -12z"/>
<path d="M3359 4354 c-20 -24 2 -34 71 -34 69 0 93 11 71 33 -16 16 -129 17
-142 1z"/>
<path d="M3676 4354 c-15 -39 -8 -44 49 -38 l55 7 0 -37 c0 -33 -2 -36 -30
-36 -18 0 -33 6 -36 15 -16 40 -52 -3 -39 -45 5 -17 15 -20 70 -20 38 0 67 5
71 12 9 15 9 132 0 147 -4 6 -35 11 -71 11 -48 0 -64 -4 -69 -16z"/>
<path d="M3574 4349 c-3 -6 -2 -15 4 -21 13 -13 32 -2 32 18 0 16 -26 19 -36
3z"/>
<path d="M1562 4308 c-24 -24 -5 -59 28 -51 26 7 32 29 14 48 -19 18 -26 19
-42 3z"/>
<path d="M1644 4295 c-4 -10 -1 -21 7 -26 20 -12 34 -5 34 17 0 24 -33 31 -41
9z"/>
<path d="M3877 4294 c-14 -14 -6 -24 19 -24 16 0 24 5 22 13 -5 14 -31 21 -41
11z"/>
<path d="M1041 4274 c-54 -17 -62 -28 -59 -76 1 -24 -4 -44 -16 -57 -17 -19
-20 -19 -48 -5 -28 15 -31 14 -54 -7 -13 -12 -26 -31 -30 -41 -7 -22 13 -78
28 -78 14 0 -16 -45 -31 -46 -6 -1 -19 -2 -30 -3 -27 -2 -44 -51 -38 -110 6
-64 10 -68 56 -81 48 -13 58 -35 31 -72 -25 -34 -25 -36 5 -81 27 -39 51 -46
85 -25 30 19 55 -11 51 -61 -2 -33 2 -42 24 -57 32 -21 121 -45 139 -38 7 3
22 21 32 39 26 50 63 55 110 17 40 -33 52 -33 111 -4 49 26 65 45 62 74 -4 40
10 58 46 58 43 0 53 16 26 44 -30 32 -14 86 34 109 19 9 35 23 36 32 0 8 1 35
1 60 0 25 -1 52 -1 60 -1 8 -19 26 -41 40 -31 20 -40 31 -40 54 0 16 7 34 15
41 17 14 20 36 5 45 -6 3 -26 1 -44 -6 -52 -19 -66 -3 -59 65 l6 54 -46 26
c-25 15 -61 29 -79 33 -30 4 -38 1 -61 -26 -36 -44 -74 -42 -106 4 -26 39 -46
42 -120 19z m262 -102 c-17 -30 -19 -31 -90 -29 -93 3 -96 17 -3 17 63 0 71 2
86 25 23 35 29 25 7 -13z m-233 -50 c0 -10 -56 -52 -70 -52 -20 0 -10 18 23
39 35 22 47 26 47 13z m344 -59 c19 -18 40 -33 45 -33 5 0 8 -6 8 -12 -1 -7 5
-34 13 -60 11 -38 19 -48 39 -51 22 -3 22 -4 -6 -6 -29 -1 -32 2 -48 50 -11
33 -35 69 -66 102 -27 28 -49 53 -49 55 0 7 30 -14 64 -45z m-144 12 c8 -5 6
-15 -5 -32 -13 -19 -14 -27 -4 -39 18 -22 48 -17 61 11 l11 25 25 -22 c35 -32
62 -95 62 -145 0 -24 4 -43 10 -43 7 0 -4 -28 -27 -69 -1 -2 -30 24 -63 59
-61 64 -70 67 -123 45 -14 -6 -20 -2 -24 14 -6 25 -16 27 -38 5 -17 -18 -12
-54 11 -67 16 -9 19 -37 5 -37 -15 0 -51 51 -51 71 0 33 22 67 50 79 22 9 35
8 65 -5 50 -20 68 -6 36 29 -29 31 -72 39 -121 22 -36 -12 -39 -12 -43 6 -5
16 -8 17 -25 7 -55 -34 -78 -137 -46 -205 14 -28 19 -32 35 -23 21 11 47 1 70
-28 13 -16 12 -17 -2 -5 -17 13 -49 7 -49 -9 0 -26 92 -58 114 -40 11 9 19 9
35 -1 45 -28 33 -37 -45 -34 -96 4 -145 35 -187 116 -25 47 -28 64 -24 115 7
99 58 170 142 198 39 14 124 15 145 2z m-320 -40 c9 6 6 -20 -12 -87 -7 -27
-17 -48 -21 -48 -5 0 -7 10 -3 23 19 68 18 92 -3 111 -30 27 -26 41 5 17 15
-11 30 -19 34 -16z m-17 -243 c9 -52 58 -126 106 -158 43 -28 48 -39 30 -64
-9 -12 -10 -11 -6 7 4 17 -6 29 -47 57 -59 40 -68 43 -86 21 -7 -8 -16 -15
-21 -15 -15 0 -10 40 5 46 23 9 26 31 11 81 -17 56 -18 63 -6 63 5 0 11 -17
14 -38z m373 -8 c70 -71 76 -84 56 -112 l-18 -23 -57 60 c-31 33 -57 65 -57
71 0 13 19 50 25 50 3 0 26 -21 51 -46z m184 27 c0 -10 -6 -36 -14 -57 -7 -22
-11 -44 -9 -50 2 -6 -15 -32 -38 -58 -44 -49 -67 -57 -29 -9 33 42 92 192 70
178 -5 -3 -11 -2 -14 3 -2 4 4 9 15 9 12 1 19 -5 19 -16z m-306 -89 c3 -5 -1
-9 -9 -9 -8 0 -12 4 -9 9 3 4 7 8 9 8 2 0 6 -4 9 -8z m144 -162 l25 -35 -26
28 c-18 18 -37 27 -59 28 -28 0 -30 2 -13 9 31 14 46 8 73 -30z"/>
<path d="M1150 4035 c0 -10 7 -15 18 -13 21 4 19 22 -2 26 -10 2 -16 -3 -16
-13z"/>
<path d="M1319 3910 c-1 -5 -1 -17 -1 -25 0 -29 2 -35 16 -35 21 0 29 17 22
46 -6 23 -35 34 -37 14z"/>
<path d="M2907 4283 c-3 -5 -5 -70 -6 -145 0 -119 -3 -142 -22 -177 -33 -65
-9 -124 56 -137 34 -6 90 15 97 38 6 17 80 17 99 1 22 -18 68 -19 99 -3 20 11
117 14 450 15 234 1 433 5 443 9 14 7 15 11 6 22 -9 12 -89 14 -451 14 -391 0
-443 -2 -468 -17 -26 -15 -29 -15 -53 4 -18 14 -39 19 -71 18 -41 -2 -46 1
-55 27 -6 18 -22 34 -43 42 l-33 14 -1 129 c-1 70 -2 134 -3 141 -1 13 -37 17
-44 5z m67 -339 c10 -4 16 -18 16 -35 0 -23 -6 -30 -27 -35 -19 -5 -30 -2 -40
11 -17 24 -16 30 3 49 17 18 24 19 48 10z"/>
<path d="M3114 4279 c-28 -10 -54 -47 -47 -68 20 -64 63 -87 109 -56 50 32 51
105 2 121 -35 12 -41 12 -64 3z m6 -53 c0 -3 -4 -8 -10 -11 -5 -3 -10 -1 -10
4 0 6 5 11 10 11 6 0 10 -2 10 -4z m60 -10 c0 -2 -8 -10 -17 -17 -16 -13 -17
-12 -4 4 13 16 21 21 21 13z"/>
<path d="M3967 4276 c-7 -18 32 -32 60 -22 20 8 8 22 -28 31 -19 5 -28 2 -32
-9z"/>
<path d="M2074 4269 c-6 -10 11 -28 27 -29 15 0 17 29 3 34 -21 8 -22 8 -30
-5z"/>
<path d="M1605 4230 c-4 -11 -4 -24 0 -29 9 -15 35 -1 35 19 0 26 -28 33 -35
10z"/>
<path d="M3257 4235 c-12 -28 58 -44 73 -16 12 24 4 31 -36 31 -19 0 -34 -6
-37 -15z"/>
<path d="M3393 4235 c-10 -27 29 -44 54 -24 7 6 22 7 35 3 46 -15 98 -12 108
6 5 10 6 20 3 24 -12 12 -111 6 -116 -6 -4 -10 -7 -10 -18 0 -18 17 -58 15
-66 -3z"/>
<path d="M4075 4240 c-9 -14 1 -27 25 -33 25 -6 36 9 20 28 -14 17 -36 19 -45
5z"/>
<path d="M1844 4186 c-10 -25 5 -36 47 -36 35 0 39 -3 39 -25 0 -23 -4 -25
-40 -25 -27 0 -43 -5 -47 -15 -8 -22 -5 -23 55 -27 34 -3 56 0 63 8 5 7 9 39
7 71 l-3 58 -58 3 c-44 2 -59 -1 -63 -12z"/>
<path d="M4158 4178 c-3 -7 3 -20 11 -30 29 -34 62 -15 39 22 -14 22 -44 27
-50 8z"/>
<path d="M2029 4163 c-1 -10 -2 -101 -3 -202 -1 -182 5 -220 32 -203 9 6 12
57 13 203 0 107 0 200 0 207 -1 19 -41 15 -42 -5z"/>
<path d="M3354 4118 c-27 -7 -74 -55 -74 -75 0 -7 -4 -13 -10 -13 -19 0 -11
-50 8 -51 89 -5 97 -4 103 16 9 31 0 44 -27 39 -22 -4 -24 -2 -14 15 9 17 22
21 98 23 79 3 87 5 87 23 0 18 -8 21 -73 25 -40 3 -84 2 -98 -2z"/>
<path d="M3674 4122 c-49 -7 -65 -14 -84 -34 -11 -12 -20 -30 -20 -40 0 -16
-10 -18 -84 -18 -77 0 -85 -2 -91 -21 -4 -11 -4 -23 -1 -27 7 -6 690 -10 719
-3 20 4 20 48 0 44 -6 -1 -23 18 -38 42 -15 27 -35 47 -50 51 -24 6 -316 11
-351 6z m354 -64 c18 -18 14 -28 -12 -28 -13 0 -27 7 -30 16 -6 16 -8 16 -24
0 -26 -22 -342 -24 -342 -2 0 8 6 17 13 19 6 3 95 6 197 6 132 1 189 -2 198
-11z"/>
<path d="M4230 4082 c0 -20 36 -46 45 -32 9 14 -13 50 -30 50 -8 0 -15 -8 -15
-18z"/>
<path d="M3030 4057 c0 -19 10 -27 26 -20 21 8 17 33 -6 33 -11 0 -20 -6 -20
-13z"/>
<path d="M1853 4003 c-18 -6 -16 -40 1 -46 8 -3 26 -4 40 -1 26 4 44 -10 26
-21 -5 -3 -10 -1 -10 5 0 6 -5 8 -12 4 -7 -5 -5 -12 8 -22 15 -12 16 -14 2 -9
-9 3 -19 3 -21 -1 -2 -4 -2 -2 -1 5 2 6 -4 14 -12 17 -9 3 -12 2 -9 -5 4 -6
-1 -16 -11 -23 -11 -8 -15 -20 -11 -30 6 -14 18 -16 64 -14 l58 3 0 69 0 69
-50 2 c-27 1 -56 0 -62 -2z"/>
<path d="M4277 3998 c-8 -23 11 -58 28 -52 18 7 18 6 5 38 -10 28 -25 34 -33
14z"/>
<path d="M1727 3924 c-4 -4 -7 -71 -7 -150 0 -109 3 -143 13 -147 33 -13 38 8
35 154 -3 120 -6 144 -18 147 -9 1 -19 0 -23 -4z"/>
<path d="M4161 3911 c-21 -13 -5 -41 23 -41 29 0 39 11 30 34 -7 18 -31 21
-53 7z"/>
<path d="M4295 3891 c-8 -15 3 -31 21 -31 9 0 14 7 12 17 -4 20 -24 28 -33 14z"/>
<path d="M3260 3800 c0 -17 4 -29 9 -26 5 3 14 -7 21 -24 19 -46 50 -60 130
-60 l70 0 0 -94 c0 -100 9 -118 50 -96 29 15 30 13 30 -39 0 -28 5 -53 11 -57
21 -12 33 17 34 81 1 57 5 69 29 94 31 32 38 32 98 -6 33 -20 36 -26 28 -48
-13 -35 16 -63 120 -118 63 -34 99 -46 138 -49 l53 -3 53 63 c29 34 59 74 67
88 13 25 12 28 -21 53 -19 14 -59 48 -87 75 l-53 48 20 26 c11 13 20 31 20 39
0 7 11 18 25 23 26 10 35 49 13 52 -7 1 -174 2 -371 2 l-358 1 3 -25 3 -25
317 0 c175 0 318 -3 319 -8 2 -24 -11 -30 -63 -28 -31 1 -59 -2 -62 -8 -4 -5
-23 -7 -42 -4 -30 5 -40 2 -54 -17 -16 -21 -19 -22 -53 -9 -29 10 -39 10 -51
0 -9 -8 -16 -20 -16 -27 0 -8 -4 -14 -9 -14 -6 0 -37 -22 -70 -50 -33 -27 -62
-50 -65 -50 -3 0 -7 39 -8 88 l-3 87 -75 3 c-41 1 -85 4 -97 7 -27 6 -31 33
-5 31 11 -1 18 7 20 24 3 24 0 25 -58 28 l-60 3 0 -31z m662 -135 c8 12 13 14
24 4 7 -6 20 -9 27 -6 14 5 43 -18 121 -100 l49 -51 -38 -46 c-47 -58 -81 -66
-150 -35 -57 25 -139 78 -132 86 3 2 17 -3 32 -13 23 -15 28 -15 36 -3 14 23
7 31 -74 84 -100 66 -102 90 -3 37 41 -22 77 -38 80 -34 14 13 4 40 -19 52
-14 7 -25 19 -25 27 0 11 6 10 32 -3 29 -15 32 -15 40 1z"/>
<path d="M1851 3812 c-6 -2 -11 -12 -11 -23 0 -17 8 -19 59 -19 60 0 83 12 62
33 -11 11 -85 17 -110 9z"/>
<path d="M4295 3800 c-8 -14 3 -30 21 -30 8 0 14 9 14 20 0 21 -24 28 -35 10z"/>
<path d="M2847 3762 c-22 -5 -22 -32 1 -33 20 -1 230 -1 250 0 8 1 12 9 10 18
-3 16 -18 18 -124 18 -66 0 -128 -1 -137 -3z"/>
<path d="M3183 3754 c-7 -18 17 -38 31 -24 11 11 1 40 -14 40 -6 0 -13 -7 -17
-16z"/>
<path d="M4180 3750 c-9 -17 -7 -22 12 -29 25 -9 48 2 48 24 0 12 -21 25 -40
25 -5 0 -14 -9 -20 -20z"/>
<path d="M4293 3713 c-15 -5 -17 -39 -4 -48 13 -7 32 28 23 42 -4 5 -13 8 -19
6z"/>
<path d="M645 3694 c-15 -15 -15 -19 -1 -32 17 -17 46 -10 46 11 0 8 -6 20
-14 26 -11 9 -18 8 -31 -5z"/>
<path d="M1895 3646 c-33 -14 -54 -47 -57 -88 l-2 -28 -86 -1 c-111 -1 -121
-3 -148 -34 l-22 -26 2 -1084 3 -1084 23 -23 c21 -21 33 -23 175 -28 146 -5
152 -6 162 -28 9 -21 24 -30 26 -14 5 48 5 79 -2 88 -5 6 -64 10 -159 9 -124
-1 -153 2 -164 15 -11 12 -13 198 -12 984 l1 969 66 43 c36 23 89 68 118 101
l51 58 741 0 c646 0 741 -2 749 -15 6 -9 10 -423 10 -1072 0 -960 -1 -1058
-16 -1073 -9 -9 -19 -13 -22 -10 -3 3 -5 52 -4 110 2 120 -4 139 -61 215 -52
70 -62 78 -90 73 -14 -3 -29 3 -41 16 -24 27 -41 27 -59 0 l-15 -21 -7 21 c-8
27 -43 27 -53 0 -5 -11 -9 -60 -11 -107 -1 -48 -4 -88 -6 -90 -8 -8 -36 61
-40 94 -1 20 -6 38 -10 42 -10 10 -33 -26 -30 -46 2 -9 6 -29 10 -44 6 -32 61
-98 80 -98 22 0 56 -56 58 -97 5 -73 29 -68 -378 -68 -248 1 -368 -2 -373 -9
-4 -6 -7 -37 -7 -68 0 -31 -4 -60 -8 -64 -4 -4 -57 -6 -118 -5 -116 2 -151 -8
-128 -35 9 -11 71 -14 323 -13 313 1 350 5 325 35 -9 11 -51 14 -189 14 l-178
0 5 32 c3 18 10 39 15 46 8 9 97 12 384 12 426 0 386 -11 383 101 -1 54 -6 72
-35 116 -28 44 -34 62 -33 105 l0 53 16 -37 c10 -25 22 -38 34 -38 17 0 19 8
19 63 1 57 2 60 15 43 10 -13 15 -43 15 -87 0 -49 4 -70 16 -80 26 -21 40 9
38 80 -1 34 1 61 5 61 3 -1 22 -23 41 -50 l35 -49 0 -138 0 -138 34 -3 c47 -5
87 15 102 49 9 23 12 275 12 1102 l-1 1071 -31 28 -31 28 -735 0 -735 0 0 23
c0 13 9 32 20 42 19 17 44 19 263 21 133 1 248 2 255 3 18 2 14 29 -5 35 -10
3 -126 5 -258 5 -172 0 -248 -4 -270 -13z m-113 -187 c-4 -21 -124 -119 -146
-119 -3 0 -4 25 -4 56 2 69 16 81 95 79 44 -1 57 -5 55 -16z"/>
<path d="M2503 3644 c-9 -25 5 -28 110 -29 112 -1 127 1 127 20 0 19 -15 22
-128 22 -81 1 -105 -2 -109 -13z"/>
<path d="M2900 3650 c-11 -7 -11 -12 -2 -22 15 -18 166 -18 184 0 6 6 8 15 5
19 -11 10 -171 13 -187 3z"/>
<path d="M3153 3643 c-8 -21 3 -27 58 -28 51 -1 82 16 57 31 -24 15 -109 13
-115 -3z"/>
<path d="M2802 3633 c5 -25 28 -28 28 -4 0 12 -6 21 -16 21 -9 0 -14 -7 -12
-17z"/>
<path d="M4250 3609 c-9 -16 -9 -24 -1 -32 12 -12 31 6 31 30 0 22 -19 24 -30
2z"/>
<path d="M3382 3603 c4 -22 43 -25 43 -3 0 8 -11 16 -23 18 -19 3 -23 0 -20
-15z"/>
<path d="M628 3573 c-10 -21 -23 -29 -48 -33 -27 -4 -35 -10 -35 -25 0 -15 8
-21 35 -25 25 -4 38 -12 48 -32 7 -16 17 -28 22 -28 5 0 15 12 22 28 8 16 22
27 35 28 13 1 30 7 38 14 20 17 3 38 -33 42 -18 2 -31 12 -40 31 -7 15 -17 27
-22 27 -5 0 -15 -12 -22 -27z m37 -52 c7 -12 -12 -24 -25 -16 -11 7 -4 25 10
25 5 0 11 -4 15 -9z"/>
<path d="M4403 3493 c-18 -7 -16 -50 3 -57 15 -6 54 9 54 20 0 3 -5 14 -10 25
-11 19 -23 22 -47 12z"/>
<path d="M852 3468 c-8 -8 -8 -17 -1 -30 8 -15 14 -16 30 -8 15 9 17 15 9 30
-12 23 -21 25 -38 8z"/>
<path d="M1480 3410 c0 -11 6 -20 13 -20 19 0 27 10 20 26 -8 21 -33 17 -33
-6z"/>
<path d="M4283 3423 c-16 -6 -17 -45 -1 -61 15 -15 48 3 48 28 0 21 -27 40
-47 33z"/>
<path d="M3741 3402 c-7 -13 -6 -23 1 -30 26 -26 64 -2 47 30 -5 10 -16 18
-24 18 -8 0 -19 -8 -24 -18z"/>
<path d="M1444 3379 c-10 -17 13 -36 27 -22 12 12 4 33 -11 33 -5 0 -12 -5
-16 -11z"/>
<path d="M634 3368 c-7 -10 2 -20 42 -44 16 -9 18 -38 18 -377 1 -321 3 -369
17 -383 14 -13 56 -16 305 -17 l289 -2 0 -90 0 -90 -331 -3 c-315 -2 -331 -1
-348 17 -15 17 -18 44 -18 230 0 194 -2 212 -19 221 -12 7 -20 6 -25 -2 -13
-21 -8 -437 6 -462 28 -54 42 -56 393 -56 342 0 383 5 392 43 8 34 1 224 -8
234 -5 4 -138 9 -295 9 -158 1 -292 2 -299 3 -9 1 -13 90 -15 370 -3 347 -4
370 -22 390 -21 23 -70 28 -82 9z"/>
<path d="M1318 3374 c-9 -9 -10 -60 -2 -91 6 -24 30 -22 51 4 13 17 7 43 -11
43 -7 0 -16 12 -22 26 -5 14 -12 23 -16 18z"/>
<path d="M2004 3371 c-37 -16 -64 -60 -64 -105 1 -97 111 -142 177 -73 51 52
49 111 -5 160 -23 21 -79 30 -108 18z"/>
<path d="M824 3337 c-3 -8 -4 -36 -2 -63 l3 -49 75 0 75 0 0 60 0 60 -73 3
c-55 2 -74 0 -78 -11z m116 -54 c0 -20 -5 -23 -40 -23 -33 0 -40 3 -40 19 0
13 8 21 23 23 48 7 57 4 57 -19z"/>
<path d="M1242 3331 c-8 -4 -12 -19 -10 -32 2 -19 10 -25 36 -27 32 -3 33 -2
30 30 -3 34 -28 48 -56 29z"/>
<path d="M3557 3333 c-11 -11 -8 -21 10 -27 17 -7 36 12 27 26 -6 10 -28 10
-37 1z"/>
<path d="M4434 3325 c-4 -8 2 -32 11 -52 17 -35 17 -37 -1 -50 -14 -10 -15
-16 -6 -25 10 -10 15 -10 22 2 5 8 6 18 4 22 -3 4 1 8 9 8 8 0 22 9 32 20 18
20 18 21 -15 55 -37 39 -48 42 -56 20z"/>
<path d="M3640 3262 c-16 -8 -33 -26 -39 -40 -7 -17 -10 -128 -8 -304 2 -271
2 -278 24 -300 22 -21 25 -22 350 -22 180 0 340 3 354 7 45 12 49 37 49 336
l0 278 -25 27 c-13 14 -28 26 -32 27 -4 0 -151 2 -327 3 -249 1 -325 -2 -346
-12z m660 -48 c13 -13 16 -542 3 -555 -6 -6 -138 -8 -333 -7 l-323 3 1 240 c1
342 0 323 19 327 43 8 624 1 633 -8z"/>
<path d="M3678 3178 c-8 -21 -3 -486 4 -494 12 -11 589 -8 597 4 5 8 7 430 2
490 -1 18 -597 18 -603 0z m552 -245 l0 -203 -250 0 -250 0 0 198 c0 109 2
201 4 203 2 2 115 4 250 4 l246 0 0 -202z"/>
<path d="M3804 3066 c-12 -32 7 -36 175 -36 130 0 171 3 180 14 22 27 -13 33
-182 35 -139 1 -168 -1 -173 -13z"/>
<path d="M3807 2985 c-4 -8 -1 -18 6 -22 22 -14 326 -11 338 3 24 29 -3 34
-171 34 -138 0 -169 -3 -173 -15z"/>
<path d="M3813 2913 c-14 -5 -18 -32 -5 -34 31 -6 332 -5 342 1 7 4 10 15 7
24 -6 14 -29 16 -169 15 -90 0 -169 -3 -175 -6z"/>
<path d="M1460 3251 c0 -15 6 -21 21 -21 14 0 19 5 17 17 -5 26 -38 29 -38 4z"/>
<path d="M1293 3248 c-14 -19 -10 -43 7 -43 8 0 16 8 18 19 5 24 -12 41 -25
24z"/>
<path d="M2451 3252 c-15 -5 -14 -29 2 -34 23 -8 762 -3 775 6 9 6 10 11 2 21
-8 10 -90 13 -389 12 -208 -1 -383 -3 -390 -5z"/>
<path d="M574 3209 c-8 -14 11 -33 25 -25 6 4 11 14 11 22 0 16 -26 19 -36 3z"/>
<path d="M1004 3185 c-11 -27 7 -35 81 -35 81 0 105 6 105 25 0 19 -24 25
-106 25 -56 0 -76 -4 -80 -15z"/>
<path d="M537 3154 c-3 -3 -3 -12 0 -19 6 -17 33 -8 33 11 0 14 -21 19 -33 8z"/>
<path d="M3494 3148 c-14 -22 -11 -70 5 -86 14 -14 16 -13 21 9 5 20 6 47 1
82 -2 11 -19 8 -27 -5z"/>
<path d="M2443 3133 c-12 -31 11 -33 397 -33 332 0 389 2 393 15 4 8 1 18 -6
22 -7 4 -185 8 -396 8 -290 0 -385 -3 -388 -12z"/>
<path d="M1925 3125 c-62 -22 -79 -52 -89 -157 -2 -22 2 -42 9 -48 8 -7 84 -9
206 -8 l194 3 3 53 c4 76 -25 135 -79 156 -70 28 -67 31 -109 -131 -6 -24 -13
-43 -15 -43 -4 0 -22 57 -45 148 -12 46 -16 48 -75 27z"/>
<path d="M4430 3126 c0 -8 4 -17 9 -20 11 -7 33 18 24 27 -12 12 -33 7 -33 -7z"/>
<path d="M803 3112 c-25 -4 -32 -37 -10 -44 10 -3 420 -3 470 1 21 1 23 29 1
38 -16 6 -422 10 -461 5z"/>
<path d="M1320 3105 c-4 -5 -8 -41 -8 -80 0 -38 -1 -134 -1 -212 l-1 -143 -79
0 c-81 0 -109 -12 -78 -34 23 -18 186 -14 197 4 5 8 9 69 9 135 0 66 0 157 0
203 l1 82 28 0 c61 0 62 -4 62 -353 l0 -315 -25 -30 c-30 -36 -31 -48 -5 -64
11 -7 20 -19 20 -26 0 -7 8 -12 18 -10 36 7 41 60 41 421 1 385 0 393 -62 418
-36 15 -106 18 -117 4z"/>
<path d="M527 3063 c-11 -10 -8 -20 9 -38 9 -9 18 -35 19 -58 2 -23 4 -46 4
-50 1 -5 11 -7 24 -5 20 3 22 8 20 58 -1 46 -6 59 -28 77 -27 24 -37 27 -48
16z"/>
<path d="M803 3032 c-25 -4 -31 -27 -10 -34 10 -4 287 -3 310 1 4 0 7 8 7 16
0 9 -10 15 -27 16 -95 3 -262 4 -280 1z"/>
<path d="M1192 3032 c-34 -3 -43 -7 -40 -20 3 -13 15 -17 53 -18 59 -1 75 4
75 21 0 15 -30 21 -88 17z"/>
<path d="M2447 3015 c-4 -8 -1 -17 5 -21 15 -9 292 -9 307 0 9 6 9 11 0 22
-17 21 -304 20 -312 -1z"/>
<path d="M2831 3016 c-21 -25 5 -29 193 -30 188 -2 227 4 205 30 -17 21 -381
21 -398 0z"/>
<path d="M4434 3019 c-3 -6 -1 -16 5 -22 9 -9 14 -8 21 3 9 15 4 30 -10 30 -5
0 -12 -5 -16 -11z"/>
<path d="M802 2962 c-15 -2 -22 -9 -20 -20 3 -15 25 -17 196 -20 167 -2 193 0
198 13 4 9 4 19 0 22 -6 7 -333 11 -374 5z"/>
<path d="M1224 2949 c-8 -14 11 -33 25 -25 6 4 11 11 11 16 0 13 -29 20 -36 9z"/>
<path d="M4430 2895 c0 -29 3 -36 18 -33 11 2 17 13 17 33 0 20 -6 31 -17 33
-15 3 -18 -4 -18 -33z"/>
<path d="M3490 2900 c0 -11 6 -20 14 -20 21 0 31 21 15 31 -22 14 -29 11 -29
-11z"/>
<path d="M783 2875 c-3 -9 -3 -18 0 -21 7 -7 486 -8 493 -1 4 3 4 13 1 21 -9
23 -485 23 -494 1z"/>
<path d="M3493 2822 c-13 -8 -16 -172 -4 -191 5 -8 16 -11 25 -8 13 5 16 23
16 101 0 93 -9 116 -37 98z"/>
<path d="M785 2809 c-16 -25 20 -29 251 -27 205 3 239 5 239 18 0 13 -35 15
-242 18 -168 2 -244 -1 -248 -9z"/>
<path d="M4437 2803 c-4 -3 -7 -12 -7 -20 0 -17 26 -17 33 1 8 21 -11 35 -26
19z"/>
<path d="M1775 2770 c-4 -6 -2 -17 4 -24 8 -9 53 -12 183 -10 214 2 198 0 198
24 0 19 -7 20 -189 20 -121 0 -192 -4 -196 -10z"/>
<path d="M2195 2770 c-15 -25 16 -38 85 -36 68 1 99 14 86 35 -9 14 -163 15
-171 1z"/>
<path d="M2414 2765 c-3 -8 -3 -18 0 -23 4 -6 773 -10 809 -3 4 0 7 10 7 21 0
20 -7 20 -405 20 -345 0 -406 -2 -411 -15z"/>
<path d="M783 2735 c-3 -9 -3 -19 1 -22 12 -12 468 -9 484 3 39 29 0 34 -239
34 -207 0 -240 -2 -246 -15z"/>
<path d="M477 2714 c-4 -4 -7 -68 -7 -141 0 -123 2 -134 18 -131 15 3 17 18
17 137 0 126 -6 156 -28 135z"/>
<path d="M4437 2703 c-4 -3 -7 -24 -7 -45 0 -27 4 -38 15 -38 8 0 15 3 16 8 0
4 3 19 5 33 4 26 -16 55 -29 42z"/>
<path d="M780 2650 c0 -20 4 -20 158 -18 132 3 157 5 157 18 0 13 -25 15 -157
18 -154 2 -158 2 -158 -18z"/>
<path d="M1788 2627 c-17 -6 -18 -10 -8 -22 13 -15 131 -22 164 -9 22 8 20 34
-1 35 -65 5 -137 3 -155 -4z"/>
<path d="M2013 2625 c-13 -10 -15 -17 -7 -25 16 -16 58 -8 62 11 4 22 -32 31
-55 14z"/>
<path d="M2112 2632 c-25 -3 -32 -8 -30 -20 3 -16 48 -17 571 -18 485 -2 569
0 574 13 3 7 3 17 0 20 -7 6 -1055 11 -1115 5z"/>
<path d="M4432 2564 c4 -21 22 -23 26 -1 2 10 -3 17 -13 17 -10 0 -15 -6 -13
-16z"/>
<path d="M3858 2509 c-6 -4 -8 -14 -5 -23 6 -14 21 -16 104 -14 90 3 98 5 98
23 0 18 -7 20 -93 20 -51 1 -98 -2 -104 -6z"/>
<path d="M4119 2503 c-21 -24 3 -33 91 -33 87 0 114 10 92 32 -16 16 -170 17
-183 1z"/>
<path d="M4368 2504 c-4 -3 -4 -12 -1 -20 3 -9 21 -14 55 -14 42 0 49 3 46 18
-2 13 -15 18 -48 20 -25 2 -49 0 -52 -4z"/>
<path d="M3674 2489 c-28 -14 -72 -83 -70 -111 2 -36 32 -34 39 1 6 29 24 50
71 84 11 8 16 19 12 25 -9 14 -24 14 -52 1z"/>
<path d="M1907 2475 c-4 -8 -1 -18 6 -22 22 -14 316 -11 328 3 24 29 -3 34
-166 34 -134 0 -164 -3 -168 -15z"/>
<path d="M2297 2476 c-3 -8 0 -19 6 -24 14 -11 644 -9 670 2 9 5 25 5 35 1 33
-15 51 -15 67 1 8 9 13 19 10 24 -3 5 -180 9 -394 10 -331 0 -390 -2 -394 -14z"/>
<path d="M3489 2468 c-4 -10 -5 -145 -2 -155 8 -21 32 -15 38 10 4 13 5 50 3
82 -2 48 -7 60 -20 63 -10 2 -19 2 -19 0z"/>
<path d="M724 2445 c-13 -32 7 -35 235 -35 196 0 230 2 242 16 10 13 10 17 -2
25 -8 5 -117 9 -242 9 -190 0 -229 -2 -233 -15z"/>
<path d="M3865 2383 c-27 -8 -53 -18 -57 -21 -4 -4 -10 -40 -13 -81 l-5 -73
32 6 c28 6 30 5 14 -7 -16 -12 -16 -14 3 -31 19 -17 22 -18 55 -2 19 9 42 16
51 16 13 0 16 8 13 43 -3 37 -1 42 20 45 35 5 58 -6 44 -20 -19 -19 -15 -68 6
-68 9 0 31 -8 48 -19 29 -18 31 -18 53 0 28 23 44 24 60 5 10 -12 6 -19 -18
-37 -43 -32 -41 -53 3 -45 26 5 35 3 40 -10 9 -24 -12 -45 -39 -38 -20 5 -23
1 -29 -52 -6 -56 -6 -59 24 -82 l31 -24 -22 -24 c-25 -27 -39 -31 -39 -10 0 7
-7 19 -15 26 -13 11 -24 9 -65 -11 -51 -25 -57 -36 -40 -70 11 -19 8 -21 -35
-21 -30 0 -33 3 -29 35 3 30 1 33 -50 57 -53 25 -54 25 -70 6 -9 -11 -16 -23
-16 -27 0 -4 -9 -5 -20 -2 -28 8 -26 49 5 76 22 20 24 26 17 72 -5 33 -12 50
-22 51 -8 1 -23 2 -33 3 -13 1 -17 8 -15 24 3 19 9 22 41 21 45 -2 46 8 7 53
-17 19 -28 39 -24 45 4 5 -5 3 -18 -6 -14 -9 -28 -13 -33 -9 -4 5 -5 2 -1 -5
4 -7 3 -18 -2 -25 -6 -7 -10 -15 -10 -20 0 -4 -4 -21 -7 -38 -5 -24 -2 -36 16
-55 21 -22 21 -25 5 -43 -11 -12 -16 -32 -14 -60 2 -22 6 -41 9 -41 7 0 22
-40 20 -53 -1 -5 2 -6 6 -4 5 3 17 -1 27 -9 15 -10 21 -30 24 -74 2 -33 9 -64
16 -69 20 -16 119 -41 165 -41 25 0 76 10 113 21 55 18 68 26 69 43 4 85 13
116 33 116 18 0 36 44 29 71 -4 14 -2 20 5 15 6 -3 15 8 22 30 10 30 10 38 -6
55 -18 20 -14 30 21 42 6 2 5 23 -3 56 -7 29 -9 58 -5 63 3 6 2 8 -4 5 -5 -4
-19 4 -29 16 -43 50 -58 83 -60 130 -1 27 -6 53 -10 57 -16 16 -132 40 -185
39 -30 0 -76 -7 -104 -16z m85 -52 c0 -21 -6 -32 -20 -36 -17 -5 -20 -13 -16
-36 5 -33 -8 -38 -24 -9 -6 11 -18 20 -26 20 -11 0 -14 8 -12 26 2 21 13 30
48 44 25 10 46 18 48 19 1 1 2 -12 2 -28z m140 -4 c35 -17 38 -45 6 -57 -14
-5 -26 -16 -26 -25 0 -8 -4 -15 -10 -15 -5 0 -10 12 -10 28 0 16 -8 32 -20 40
-11 7 -20 22 -20 33 0 18 4 20 28 14 15 -3 38 -12 52 -18z m-310 -371 c-14
-14 -22 -2 -14 18 5 14 9 15 15 4 4 -7 4 -17 -1 -22z m428 6 c2 -7 -3 -12 -12
-12 -9 0 -16 7 -16 16 0 17 22 14 28 -4z m-298 -181 c0 -22 6 -30 23 -35 30
-7 31 -53 1 -48 -46 7 -82 24 -86 40 -6 22 1 44 13 37 4 -3 14 3 21 15 18 28
28 25 28 -9z m168 9 c7 -11 19 -20 27 -20 29 0 16 -40 -17 -54 -71 -29 -78
-29 -78 -3 0 15 10 31 26 42 19 12 23 20 15 29 -10 12 -5 26 8 26 4 0 12 -9
19 -20z"/>
<path d="M4334 2365 c-16 -12 -8 -25 27 -44 23 -11 30 -11 53 4 20 13 24 21
16 35 -11 20 -71 24 -96 5z"/>
<path d="M1785 2347 c-8 -4 -12 -14 -9 -22 9 -22 499 -22 507 0 4 8 1 18 -6
22 -16 10 -475 10 -492 0z"/>
<path d="M2346 2352 c-10 -2 -16 -11 -14 -20 3 -15 24 -17 181 -20 172 -2 177
-2 177 18 0 11 -3 20 -7 21 -23 3 -322 3 -337 1z"/>
<path d="M2750 2352 c-6 -2 -10 -12 -10 -23 0 -18 10 -19 240 -19 208 0 241 2
247 15 3 9 3 19 -1 22 -6 7 -457 11 -476 5z"/>
<path d="M4477 2303 c-12 -11 -8 -41 7 -46 15 -6 36 11 36 29 0 6 -7 15 -16
18 -19 7 -19 7 -27 -1z"/>
<path d="M3687 2264 c-42 -44 -86 -151 -91 -222 -7 -99 39 -229 100 -287 19
-19 42 -31 49 -29 21 9 28 37 10 46 -43 24 -71 69 -66 107 2 7 -2 10 -7 7 -11
-6 -20 11 -32 61 -7 29 -6 32 19 35 18 2 27 10 29 26 3 19 -1 22 -27 22 -29 0
-30 2 -25 33 10 59 35 112 76 160 62 74 32 110 -35 41z"/>
<path d="M4204 2285 c-4 -9 8 -31 31 -56 39 -43 70 -106 81 -164 6 -33 5 -35
-21 -35 -22 0 -26 -4 -23 -22 2 -13 12 -25 24 -28 21 -5 21 -7 7 -52 -7 -27
-19 -48 -25 -48 -7 0 -7 -4 1 -14 10 -11 2 -24 -38 -64 -45 -45 -49 -52 -36
-66 9 -8 22 -13 31 -9 23 9 85 95 80 110 -3 7 3 22 14 33 51 51 52 200 1 302
-52 104 -111 156 -127 113z"/>
<path d="M522 2248 c4 -43 33 -46 33 -3 0 21 -5 31 -18 33 -15 3 -18 -2 -15
-30z"/>
<path d="M1259 2244 c-10 -13 -10 -17 1 -24 14 -9 40 -3 40 10 0 4 -6 13 -14
19 -10 9 -16 7 -27 -5z"/>
<path d="M800 2240 c-20 -12 -2 -30 30 -30 28 0 48 15 36 27 -9 9 -52 11 -66
3z"/>
<path d="M936 2242 c-13 -13 -5 -32 14 -32 11 0 20 5 20 10 0 6 1 13 3 17 3 8
-30 13 -37 5z"/>
<path d="M1047 2244 c-14 -14 -7 -35 11 -32 9 2 17 10 17 17 0 16 -18 25 -28
15z"/>
<path d="M1114 2239 c-8 -14 11 -33 25 -25 11 7 4 36 -9 36 -5 0 -12 -5 -16
-11z"/>
<path d="M3489 2243 c-8 -51 -3 -136 8 -145 24 -20 34 6 31 78 -2 56 -6 69
-20 72 -10 2 -19 0 -19 -5z"/>
<path d="M1781 2197 c-6 -8 -8 -17 -4 -20 3 -4 332 -7 730 -7 685 0 724 1 721
18 -3 16 -46 17 -719 20 -591 2 -718 0 -728 -11z"/>
<path d="M4439 2194 c-10 -12 -9 -18 3 -31 19 -18 38 -10 38 17 0 24 -25 33
-41 14z"/>
<path d="M637 2193 c-4 -3 0 -17 9 -31 21 -32 26 -88 8 -103 -7 -6 -35 -12
-61 -14 -26 -2 -51 -3 -55 -4 -5 -1 -8 -8 -8 -16 0 -8 14 -17 35 -21 24 -4 35
-12 35 -24 0 -19 25 -34 41 -24 5 3 9 18 9 33 0 18 13 39 40 66 22 21 40 46
40 55 0 8 -14 32 -31 53 -29 35 -48 45 -62 30z"/>
<path d="M1386 2185 c-9 -24 -7 -88 3 -104 8 -13 16 -13 53 -1 62 20 69 28 66
74 l-3 41 -56 3 c-45 2 -58 0 -63 -13z"/>
<path d="M3953 2142 c-34 -5 -81 -58 -89 -98 -24 -130 163 -197 219 -78 21 42
21 65 3 109 -22 51 -73 77 -133 67z m-19 -137 c3 -8 1 -15 -4 -15 -6 0 -10 7
-10 15 0 8 2 15 4 15 2 0 6 -7 10 -15z m31 -35 c3 -6 -1 -7 -9 -4 -18 7 -21
14 -7 14 6 0 13 -4 16 -10z"/>
<path d="M587 2133 c-4 -3 -7 -15 -7 -25 0 -22 23 -24 41 -2 10 13 10 17 -2
25 -17 11 -24 11 -32 2z"/>
<path d="M820 2130 c-6 -4 -14 -24 -15 -44 -3 -21 -16 -53 -33 -74 -16 -20
-35 -48 -42 -62 -7 -14 -44 -69 -82 -122 -37 -53 -73 -109 -79 -125 -39 -101
36 -212 149 -218 60 -4 82 7 66 32 -7 12 -24 18 -45 18 -76 1 -129 46 -129
112 0 17 25 65 67 128 36 55 77 117 91 138 14 20 27 37 31 37 3 0 6 -52 6
-114 l0 -115 -55 -50 c-42 -37 -52 -52 -44 -61 7 -7 20 -9 30 -6 29 9 100 78
108 104 4 12 10 22 14 23 4 0 97 1 207 3 207 2 234 7 255 46 6 10 10 89 10
179 0 147 -2 161 -19 170 -22 12 -472 13 -491 1z m428 -49 c2 -1 -33 -29 -78
-62 -78 -59 -82 -61 -108 -48 -40 20 -142 101 -138 108 4 5 306 7 324 2z
m-328 -67 c27 -23 76 -39 83 -26 2 4 3 2 1 -4 -1 -7 5 -22 13 -34 15 -22 14
-24 -22 -55 -27 -22 -36 -37 -32 -48 9 -23 18 -22 65 13 23 17 45 30 50 30 4
0 23 -11 42 -25 19 -14 38 -25 42 -25 14 0 9 32 -7 50 -14 16 -11 50 4 50 4 0
16 8 27 18 45 40 84 62 85 50 7 -70 2 -193 -7 -206 -9 -13 -41 -15 -190 -17
-98 0 -187 1 -196 3 -16 4 -18 19 -18 139 0 150 -4 143 60 87z"/>
<path d="M915 1840 c-8 -13 4 -32 16 -25 12 8 12 35 0 35 -6 0 -13 -4 -16 -10z"/>
<path d="M1781 2057 c-5 -5 -7 -16 -4 -23 4 -12 123 -14 724 -14 651 0 720 2
726 16 3 9 0 19 -6 24 -19 11 -1428 9 -1440 -3z"/>
<path d="M4473 2059 c-18 -18 -4 -50 21 -47 15 2 21 10 21 28 0 27 -23 38 -42
19z"/>
<path d="M3486 2018 c-3 -7 -4 -44 -3 -83 2 -63 4 -70 22 -70 18 0 20 7 20 80
0 68 -3 80 -18 83 -9 2 -19 -2 -21 -10z"/>
<path d="M1426 1941 c-9 -15 23 -36 36 -23 5 5 7 15 4 21 -9 13 -33 14 -40 2z"/>
<path d="M1780 1910 c-5 -10 -6 -20 -3 -24 3 -3 332 -6 730 -6 l724 0 -3 23
-3 22 -718 1 c-667 1 -719 0 -727 -16z"/>
<path d="M4442 1908 c-17 -17 -15 -47 4 -55 9 -3 20 0 25 8 12 18 11 22 -4 42
-10 14 -15 15 -25 5z"/>
<path d="M1431 1791 c-15 -10 -8 -41 9 -41 15 0 25 29 14 40 -5 5 -15 5 -23 1z"/>
<path d="M1797 1782 c-9 -2 -17 -12 -17 -23 0 -18 8 -19 124 -19 94 0 126 3
135 14 9 11 9 16 0 21 -11 8 -210 13 -242 7z"/>
<path d="M2162 1773 c-29 -21 4 -33 96 -33 65 0 84 3 89 15 3 9 3 18 1 21 -12
11 -171 9 -186 -3z"/>
<path d="M4460 1736 c0 -21 21 -31 30 -15 5 7 6 17 4 21 -9 14 -34 9 -34 -6z"/>
<path d="M3487 1713 c-3 -10 -4 -74 -3 -143 1 -118 2 -125 21 -125 19 0 20 7
20 140 0 122 -2 140 -17 143 -9 2 -18 -5 -21 -15z"/>
<path d="M1388 1684 c-36 -23 -50 -56 -29 -68 4 -3 11 -19 14 -36 6 -29 7 -30
64 -27 56 2 58 3 61 32 2 17 8 34 13 40 17 17 9 34 -28 60 -45 30 -48 30 -95
-1z m74 -63 c-3 -19 -10 -26 -27 -27 -28 -2 -40 37 -17 60 22 21 49 1 44 -33z"/>
<path d="M3602 1663 c2 -20 9 -28 23 -28 19 0 21 7 16 45 0 6 -10 10 -22 10
-16 0 -20 -5 -17 -27z"/>
<path d="M4364 1636 c-3 -13 -17 -29 -30 -35 -32 -14 -30 -61 3 -76 12 -5 24
-20 28 -32 6 -27 33 -30 42 -5 3 9 19 28 35 42 32 28 30 65 -4 76 -10 3 -23
17 -28 30 -12 31 -38 31 -46 0z m33 -80 c-8 -9 -14 -10 -23 -2 -14 13 2 27 22
19 10 -4 10 -8 1 -17z"/>
<path d="M1958 1641 c-13 -4 -42 -36 -58 -63 -17 -29 17 -30 44 -1 23 24 32
27 105 28 45 1 86 2 91 3 15 3 12 32 -2 33 -53 3 -170 3 -180 0z"/>
<path d="M2200 1638 c-12 -4 -17 -13 -14 -21 4 -11 25 -14 85 -14 69 1 79 3
79 19 0 10 -4 18 -10 19 -43 5 -125 3 -140 -3z"/>
<path d="M1784 1586 c-12 -30 4 -47 38 -44 28 2 33 7 33 28 0 21 -5 26 -33 28
-22 2 -34 -2 -38 -12z"/>
<path d="M1180 1572 c-25 -12 -37 -25 -41 -47 -17 -93 82 -148 142 -79 42 48
30 106 -26 129 -42 18 -33 18 -75 -3z"/>
<path d="M4183 1573 c-7 -2 -13 -18 -13 -34 0 -24 4 -29 25 -29 14 0 26 5 26
10 1 6 2 16 3 23 2 13 -13 37 -23 36 -3 0 -12 -3 -18 -6z"/>
<path d="M903 1550 c-3 -10 -14 -22 -24 -25 -25 -8 -25 -35 0 -42 11 -3 21
-13 24 -24 6 -22 27 -26 27 -4 0 8 12 22 26 32 l26 17 -26 19 c-14 10 -26 25
-26 33 0 21 -21 17 -27 -6z"/>
<path d="M4034 1546 c-10 -26 4 -48 28 -44 17 2 23 10 23 28 0 18 -6 26 -23
28 -13 2 -25 -3 -28 -12z"/>
<path d="M2007 1539 c-10 -6 -22 -22 -27 -35 -6 -16 -17 -24 -32 -24 -30 0
-52 -15 -44 -29 4 -6 22 -11 39 -11 18 0 42 -7 54 -15 26 -18 36 -7 31 33 -2
22 1 28 20 30 12 2 22 -1 22 -7 0 -6 11 -11 25 -11 32 0 34 31 3 60 -24 22
-62 26 -91 9z"/>
<path d="M2160 1530 c-21 -21 -27 -64 -11 -74 14 -9 41 5 41 21 0 8 5 11 10 8
6 -3 10 -1 10 5 0 6 5 8 10 5 19 -12 10 -45 -17 -59 l-28 -14 3 -102 c3 -88 5
-101 20 -98 14 3 17 18 20 96 2 73 6 92 18 92 8 0 22 16 31 35 12 25 23 35 40
35 19 0 23 -5 23 -30 0 -17 -6 -46 -14 -65 -12 -27 -12 -34 -1 -39 23 -8 46
30 52 88 5 45 9 56 21 51 8 -3 24 3 35 12 11 10 17 13 14 6 -4 -6 -3 -14 3
-18 5 -3 10 2 10 12 1 16 2 16 10 2 6 -11 26 -16 65 -18 50 -2 55 0 55 18 0
20 -5 21 -157 21 -123 1 -162 4 -177 15 -27 21 -62 19 -86 -5z"/>
<path d="M3597 1536 c-4 -11 1 -17 16 -21 30 -7 97 -2 97 8 0 18 -8 22 -56 25
-39 2 -53 -1 -57 -12z"/>
<path d="M3772 1533 c4 -22 43 -25 43 -3 0 8 -11 16 -23 18 -19 3 -23 0 -20
-15z"/>
<path d="M3862 1533 c4 -24 93 -27 93 -3 0 11 -13 16 -48 18 -42 3 -48 1 -45
-15z"/>
<path d="M2726 1495 c-9 -14 -23 -25 -31 -25 -22 0 -18 -31 4 -37 11 -3 22
-16 25 -29 7 -27 36 -23 36 6 0 12 9 20 22 22 30 4 37 38 8 38 -13 0 -24 9
-30 25 -5 14 -11 25 -14 25 -2 0 -11 -11 -20 -25z"/>
<path d="M1802 1492 c-19 -3 -23 -9 -20 -30 3 -24 8 -27 38 -27 30 0 35 4 38
26 3 28 -13 38 -56 31z"/>
<path d="M1442 1443 c5 -26 38 -29 38 -4 0 15 -6 21 -21 21 -14 0 -19 -5 -17
-17z"/>
<path d="M2067 1426 c-27 -22 -28 -25 -25 -112 3 -81 5 -89 23 -89 18 0 21 9
26 90 3 50 9 100 14 113 9 28 -2 28 -38 -2z"/>
<path d="M3575 1343 l-85 -82 2 -343 3 -343 403 -3 c378 -2 402 -1 403 15 4
112 0 825 -5 830 -4 4 -148 7 -321 8 l-315 0 -85 -82z m675 -346 l0 -372 -352
0 -353 0 -1 305 -1 305 65 68 65 67 289 0 288 0 0 -373z"/>
<path d="M3889 1306 c-2 -2 -20 -6 -39 -9 -97 -12 -194 -89 -228 -179 -11 -28
-20 -81 -21 -117 -3 -124 80 -243 193 -276 27 -8 55 -15 62 -15 6 0 19 -11 28
-25 18 -27 42 -24 51 6 4 11 16 19 28 20 109 4 229 147 233 278 1 31 -4 74
-11 97 -14 47 -70 133 -91 141 -8 3 -29 -9 -47 -27 l-32 -31 -5 51 c-6 56 -26
80 -66 80 -12 0 -29 2 -36 5 -8 3 -16 4 -19 1z m58 -68 c25 -41 -10 -88 -65
-88 -119 0 -190 -141 -118 -235 73 -96 211 -89 278 13 17 26 24 82 12 95 -13
13 -43 -14 -54 -47 -13 -40 -42 -62 -94 -71 -30 -6 -42 -3 -70 19 -59 44 -56
113 6 159 35 26 83 17 75 -14 -6 -23 27 -64 43 -54 6 4 10 29 10 57 0 43 2 49
14 39 17 -14 41 -5 70 27 25 28 41 19 65 -38 52 -121 -3 -268 -121 -319 -29
-13 -60 -27 -69 -32 -22 -11 -138 30 -183 65 -73 56 -111 164 -87 252 20 73
86 140 168 170 48 17 109 18 120 2z"/>
<path d="M588 1389 c-26 -17 34 -45 67 -32 15 5 21 32 8 34 -40 5 -64 5 -75
-2z"/>
<path d="M726 1385 c-7 -20 21 -33 67 -30 44 3 52 8 44 30 -9 21 -102 21 -111
0z"/>
<path d="M974 1363 c-50 -9 -70 -63 -47 -127 19 -55 32 -69 49 -55 25 20 64
-33 64 -87 0 -111 83 -194 192 -194 29 0 61 0 71 -1 24 0 87 40 87 56 0 7 -7
18 -15 25 -13 11 -18 10 -29 -5 -12 -17 -59 -24 -91 -15 -5 2 -27 0 -49 -5
-33 -7 -41 -4 -61 17 -40 43 -57 87 -50 125 4 25 1 43 -13 67 -24 41 -9 69 35
64 26 -3 28 0 31 36 4 47 -8 62 -36 47 -17 -9 -22 -8 -27 9 -10 33 -62 52
-111 43z m51 -63 c-3 -5 -1 -12 5 -15 15 -9 -7 -35 -30 -35 -10 0 -24 8 -31
18 -13 15 -12 16 4 3 22 -18 33 -8 13 11 -10 11 -11 19 -5 25 12 12 51 5 44
-7z m-55 -110 c0 -5 -2 -10 -4 -10 -3 0 -8 5 -11 10 -3 6 -1 10 4 10 6 0 11
-4 11 -10z"/>
<path d="M990 1303 c0 -5 7 -18 15 -29 12 -16 14 -16 15 -3 0 9 -7 22 -15 29
-8 7 -15 8 -15 3z"/>
<path d="M1253 1360 c-24 -10 -31 -34 -13 -45 14 -8 13 -38 -2 -53 -6 -6 -13
-26 -14 -43 -2 -21 -13 -40 -34 -58 -51 -42 -40 -123 18 -138 41 -11 45 -11
75 6 46 26 53 88 14 130 -27 28 -28 59 -3 73 10 5 16 23 16 43 0 41 26 53 68
31 31 -16 103 -90 122 -125 9 -18 14 -20 26 -10 23 19 16 48 -17 79 -17 16
-35 32 -39 37 -5 4 -22 23 -38 42 -27 32 -34 35 -93 38 -35 1 -74 -2 -86 -7z
m12 -260 c0 -18 -6 -26 -23 -28 -24 -4 -38 18 -28 44 3 9 15 14 28 12 17 -2
23 -10 23 -28z"/>
<path d="M4380 1337 c0 -19 10 -27 25 -20 17 6 8 33 -11 33 -8 0 -14 -6 -14
-13z"/>
<path d="M787 1304 c-14 -14 -7 -25 13 -22 12 2 21 8 21 13 0 12 -24 18 -34 9z"/>
<path d="M685 1281 c-3 -5 2 -17 11 -26 14 -13 19 -14 25 -3 14 22 10 38 -10
38 -11 0 -22 -4 -26 -9z"/>
<path d="M4387 1263 c-4 -3 -7 -12 -7 -20 0 -15 26 -18 34 -4 7 11 -18 33 -27
24z"/>
<path d="M1340 1227 c0 -13 11 -34 25 -47 31 -29 32 -62 4 -99 -31 -42 -22
-66 23 -66 20 0 39 -2 42 -5 4 -4 11 -39 15 -72 1 -4 12 -17 25 -30 14 -13 26
-36 28 -53 4 -42 42 -43 46 -1 2 17 18 42 39 62 32 30 35 38 30 70 -3 20 -14
45 -23 55 -21 23 -68 33 -93 19 -32 -17 -61 3 -56 39 6 50 -54 151 -90 151 -9
0 -15 -10 -15 -23z m214 -248 c-3 -5 0 -9 6 -9 7 0 6 -5 -3 -14 -23 -24 -51
-13 -54 20 -1 16 1 24 5 19 4 -6 16 -12 26 -13 18 -3 19 -2 5 15 -13 16 -13
17 3 4 10 -7 15 -17 12 -22z"/>
<path d="M1514 969 c-3 -6 -3 -13 0 -16 3 -4 6 0 6 8 0 12 2 12 9 0 5 -8 11
-9 15 -3 3 5 -1 12 -9 16 -8 3 -17 1 -21 -5z"/>
<path d="M771 1216 c-9 -11 -8 -18 4 -30 9 -9 20 -16 25 -16 16 0 39 31 34 45
-8 19 -48 19 -63 1z"/>
<path d="M4377 1173 c-4 -3 -7 -41 -7 -84 0 -58 4 -78 15 -82 8 -4 18 -1 22 6
8 13 13 135 5 155 -4 13 -24 16 -35 5z"/>
<path d="M1949 1153 c-18 -21 14 -52 38 -37 26 16 25 28 -2 40 -19 9 -27 9
-36 -3z"/>
<path d="M1653 1153 c-22 -8 -14 -32 11 -39 28 -7 46 1 46 21 0 19 -30 29 -57
18z"/>
<path d="M1792 1151 c-7 -4 -10 -15 -7 -23 5 -11 19 -15 53 -14 40 1 47 4 47
21 0 16 -7 20 -40 22 -22 1 -46 -1 -53 -6z"/>
<path d="M2757 1146 c-9 -23 19 -41 38 -26 12 10 13 16 4 26 -15 18 -35 18
-42 0z"/>
<path d="M2844 1145 c-12 -30 8 -35 131 -35 122 0 125 -1 141 -25 15 -23 15
-27 0 -49 -11 -17 -21 -23 -36 -19 -21 6 -42 43 -37 65 5 24 -23 17 -29 -7 -8
-31 17 -92 41 -101 13 -5 15 -40 15 -231 l0 -224 23 3 c22 3 22 3 25 223 2
165 5 223 15 230 53 41 60 100 18 147 l-29 33 -137 2 c-108 1 -137 -1 -141
-12z"/>
<path d="M654 1142 c-14 -11 -11 -189 4 -203 23 -24 33 6 33 92 0 46 0 89 0
95 -1 15 -25 24 -37 16z"/>
<path d="M3340 1091 c0 -33 5 -63 10 -66 22 -13 37 15 36 67 -1 47 -4 53 -23
56 -22 3 -23 0 -23 -57z"/>
<path d="M787 1126 c-7 -16 1 -26 20 -26 7 0 13 9 13 20 0 23 -25 27 -33 6z"/>
<path d="M952 1069 c-43 -74 -34 -180 19 -237 36 -38 98 -72 133 -72 15 0 30
-8 36 -21 24 -43 111 -61 174 -35 38 16 116 125 116 162 0 29 -2 29 -45 2 -22
-15 -35 -31 -35 -45 0 -35 -11 -53 -41 -68 -65 -34 -125 -10 -121 48 2 32 -1
36 -32 47 -42 14 -121 82 -143 124 -9 17 -22 54 -28 83 l-10 52 -23 -40z"/>
<path d="M787 1044 c-14 -14 -7 -25 13 -22 12 2 21 8 21 13 0 12 -24 18 -34 9z"/>
<path d="M2790 1035 c-19 -23 -4 -32 52 -31 43 1 53 5 56 20 4 16 0 18 -28 13
-17 -4 -40 -2 -50 3 -13 7 -21 6 -30 -5z"/>
<path d="M1710 1019 c0 -14 5 -19 17 -17 26 5 29 38 4 38 -15 0 -21 -6 -21
-21z"/>
<path d="M1810 1026 c0 -23 20 -30 46 -15 18 9 21 15 12 21 -21 13 -58 9 -58
-6z"/>
<path d="M1896 1025 c-7 -20 23 -27 109 -23 57 2 70 6 73 21 3 15 -6 17 -86
17 -70 0 -91 -3 -96 -15z"/>
<path d="M2150 1020 c0 -18 7 -20 65 -20 58 0 65 2 65 20 0 18 -7 20 -65 20
-58 0 -65 -2 -65 -20z"/>
<path d="M2352 1022 c5 -25 138 -27 138 -2 0 13 -12 16 -71 17 -60 1 -70 -1
-67 -15z"/>
<path d="M2552 1023 c3 -15 16 -18 82 -21 55 -2 82 1 87 10 14 23 -2 28 -87
28 -76 0 -85 -2 -82 -17z"/>
<path d="M791 971 c-19 -12 -9 -46 13 -46 22 0 30 29 12 44 -6 5 -18 6 -25 2z"/>
<path d="M3295 960 l-30 -5 -3 -114 c-1 -63 2 -119 7 -124 13 -13 89 -19 109
-8 15 8 17 25 15 118 -1 59 -2 113 -2 119 -1 14 -54 21 -96 14z m51 -75 c0
-16 -6 -23 -14 -20 -7 2 -17 -5 -21 -18 -7 -17 -8 -13 -8 21 1 36 4 42 23 42
17 0 22 -5 20 -25z m1 -120 c0 -9 -10 -15 -23 -15 -17 0 -22 4 -18 15 4 8 14
15 23 15 10 0 18 -7 18 -15z"/>
<path d="M3313 885 c0 -8 4 -12 9 -9 4 3 8 9 8 15 0 5 -4 9 -8 9 -5 0 -9 -7
-9 -15z"/>
<path d="M1795 940 c-44 -22 -53 -63 -52 -220 2 -157 15 -191 82 -225 38 -19
59 -20 535 -19 492 1 495 1 532 23 53 32 68 72 68 179 0 90 -6 106 -37 95 -9
-3 -13 -31 -13 -94 0 -84 -2 -91 -29 -121 l-28 -32 -502 0 -502 0 -27 27 c-26
27 -27 30 -30 170 -5 197 -16 187 219 187 153 0 181 2 186 15 3 9 2 19 -2 23
-3 4 -88 7 -188 7 -143 0 -188 -3 -212 -15z"/>
<path d="M2461 952 c-16 -5 -13 -29 5 -36 9 -3 105 -6 215 -6 l200 0 17 -30
c21 -36 62 -42 62 -9 0 22 -50 78 -72 80 -37 3 -417 4 -427 1z"/>
<path d="M2285 933 c-28 -7 -51 -29 -64 -62 -11 -24 -17 -27 -59 -26 -90 1
-127 -26 -115 -87 6 -33 40 -48 105 -48 42 0 56 -5 84 -30 60 -52 140 -49 183
6 16 21 28 24 79 24 85 0 120 34 99 97 -10 26 -47 40 -109 38 -43 -1 -48 2
-59 27 -23 56 -74 78 -144 61z m65 -58 c4 3 13 -1 19 -9 9 -11 6 -15 -13 -18
-18 -4 -23 -1 -19 10 5 12 2 12 -16 3 -12 -7 -19 -16 -16 -22 9 -14 -5 -11
-20 5 -12 12 -12 15 3 22 9 4 23 6 30 5 6 -1 12 4 13 11 0 10 2 10 6 0 2 -6 8
-10 13 -7z m-35 -76 c-4 -5 43 -9 115 -9 93 0 121 -3 117 -12 -2 -9 -33 -13
-98 -14 -143 -3 -136 -1 -134 -26 1 -13 7 -23 12 -23 6 0 14 -3 18 -7 4 -4 -7
-6 -23 -6 -17 1 -33 7 -36 15 -3 8 -2 11 3 8 15 -8 25 15 12 28 -7 7 -46 10
-106 8 -80 -2 -95 0 -95 13 0 13 18 16 103 18 78 2 101 6 99 16 -1 8 2 11 8 7
6 -3 8 -11 5 -16z"/>
<path d="M802 867 c-15 -18 2 -71 21 -65 17 6 20 40 4 61 -11 16 -15 17 -25 4z"/>
<path d="M2746 854 c-7 -18 7 -30 33 -28 24 1 44 22 35 36 -8 12 -63 6 -68 -8z"/>
<path d="M1247 837 c-8 -21 8 -39 29 -35 27 5 25 42 -2 46 -12 2 -24 -3 -27
-11z"/>
<path d="M1897 809 c-21 -12 -13 -29 13 -29 24 0 33 15 17 28 -8 7 -18 7 -30
1z"/>
<path d="M2752 782 c-13 -4 -17 -32 -4 -33 4 0 17 -2 28 -5 27 -4 52 20 32 32
-15 9 -39 12 -56 6z"/>
<path d="M843 754 c-8 -20 21 -48 42 -41 14 6 14 9 -1 32 -19 29 -32 32 -41 9z"/>
<path d="M1624 729 c-10 -17 13 -36 27 -22 12 12 4 33 -11 33 -5 0 -12 -5 -16
-11z"/>
<path d="M1890 730 c-7 -4 -9 -13 -6 -19 10 -16 46 -14 46 3 0 17 -23 27 -40
16z"/>
<path d="M2750 702 c-5 -2 -10 -10 -10 -18 0 -13 9 -16 45 -16 29 0 33 2 28
21 -4 17 -32 23 -63 13z"/>
<path d="M918 684 c-11 -10 3 -34 19 -34 8 0 13 7 11 17 -3 18 -20 27 -30 17z"/>
<path d="M1435 659 c-6 -24 -11 -28 -48 -31 -59 -4 -58 -32 1 -36 28 -2 42 -8
43 -18 1 -8 3 -18 4 -24 1 -5 3 -14 4 -20 0 -6 30 -10 66 -10 l65 0 0 30 c0
23 6 33 25 40 32 12 32 28 1 40 -14 5 -26 19 -28 32 -3 21 -9 23 -65 24 -60 1
-62 1 -68 -27z m99 -48 c-1 -14 -2 -31 -3 -36 -1 -6 -13 -10 -28 -9 -24 1 -27
5 -28 36 -1 34 0 36 30 35 28 -1 31 -4 29 -26z"/>
<path d="M3200 649 c0 -15 5 -20 22 -17 34 5 37 38 4 38 -20 0 -26 -5 -26 -21z"/>
<path d="M2845 649 c-10 -15 1 -23 20 -15 9 3 13 10 10 16 -8 13 -22 13 -30
-1z"/>
<path d="M990 635 c0 -19 24 -29 46 -21 13 5 14 9 4 21 -16 20 -50 19 -50 0z"/>
<path d="M1094 628 c-3 -5 -2 -14 4 -20 12 -12 42 -4 42 11 0 13 -39 21 -46 9z"/>
<path d="M1177 623 c-11 -10 13 -32 29 -26 20 8 17 33 -4 33 -10 0 -22 -3 -25
-7z"/>
<path d="M1264 619 c-3 -6 -2 -15 3 -20 14 -14 43 0 36 17 -6 17 -29 19 -39 3z"/>
<path d="M1864 609 c-10 -17 26 -40 50 -32 12 3 32 6 46 5 69 -5 76 -3 67 23
-8 20 -46 19 -64 -2 -12 -14 -14 -15 -10 -2 4 12 -4 16 -38 18 -25 1 -46 -3
-51 -10z"/>
<path d="M2060 601 c0 -25 15 -30 83 -27 62 2 72 7 64 31 -5 11 -23 15 -77 15
-62 0 -70 -2 -70 -19z"/>
<path d="M2427 606 c-8 -21 16 -39 31 -24 8 8 9 15 1 25 -15 17 -25 17 -32 -1z"/>
<path d="M2605 610 c-16 -27 16 -37 109 -36 52 1 97 4 101 7 3 3 3 14 -1 23
-5 13 -22 16 -104 16 -58 0 -101 -4 -105 -10z"/>
<path d="M3337 608 c-2 -7 0 -23 4 -36 13 -35 43 -25 47 16 3 28 0 32 -21 32
-14 0 -27 -6 -30 -12z"/>
<path d="M3211 561 c-16 -10 -6 -31 14 -31 14 0 27 24 18 34 -8 8 -15 7 -32
-3z"/>
</g>
</svg>
